<?xml version="1.0" encoding="utf-8"?>
<!-- Generator: Adobe Illustrator 23.0.3, SVG Export Plug-In . SVG Version: 6.00 Build 0)  -->
<svg version="1.1" id="图层_1" xmlns="http://www.w3.org/2000/svg" xmlns:xlink="http://www.w3.org/1999/xlink" x="0px" y="0px"
     viewBox="0 0 40 60" style="enable-background:new 0 0 40 60;" xml:space="preserve">
<style type="text/css">
	.st0{clip-path:url(#SVGID_2_);fill:#FFFFFF;}
	.st1{fill:#FFFFFF;}
</style>
    <g>
	<g>
		<defs>
			<rect id="SVGID_1_" x="0.92" y="6" width="38.08" height="49"/>
		</defs>
        <clipPath id="SVGID_2_">
			<use xlink:href="#SVGID_1_"  style="overflow:visible;"/>
		</clipPath>
        <path class="st0" d="M14.16,8.49h-0.68c-0.2,0-0.34,0.18-0.34,0.44v13.15c0,0.26,0.14,0.44,0.34,0.44h0.68
			c0.2,0,0.34-0.18,0.34-0.44V8.93C14.5,8.67,14.37,8.49,14.16,8.49L14.16,8.49z M14.16,30.4h-0.68c-0.2,0-0.34,0.18-0.34,0.44v4.38
			c0,0.26,0.14,0.44,0.34,0.44h0.68c0.2,0,0.34-0.18,0.34-0.44v-4.38C14.5,30.58,14.37,30.4,14.16,30.4L14.16,30.4z M9.41,15.51
			H8.73c-0.2,0-0.34,0.18-0.34,0.44v14.02c0,0.26,0.14,0.44,0.34,0.44h0.68c0.2,0,0.34-0.18,0.34-0.44V15.94
			C9.75,15.68,9.61,15.51,9.41,15.51L9.41,15.51z M13.82,26.02c-0.41,0-0.68,0.35-0.68,0.88c0,0.53,0.27,0.88,0.68,0.88
			c0.41,0,0.68-0.35,0.68-0.88C14.5,26.37,14.23,26.02,13.82,26.02L13.82,26.02z M9.07,33.91c-0.41,0-0.68,0.35-0.68,0.88
			c0,0.53,0.27,0.88,0.68,0.88s0.68-0.35,0.68-0.88C9.75,34.26,9.48,33.91,9.07,33.91L9.07,33.91z M9.07,10.25
			c-0.41,0-0.68,0.35-0.68,0.88c0,0.53,0.27,0.88,0.68,0.88s0.68-0.35,0.68-0.88C9.75,10.6,9.48,10.25,9.07,10.25L9.07,10.25z
			 M27.75,35.66c1.16,0,2.11,0.7,2.65,1.75h-5.3C25.65,36.36,26.67,35.66,27.75,35.66 M27.75,33.91c-2.45,0-4.42,2.37-4.42,5.26
			h8.83C32.17,36.28,30.2,33.91,27.75,33.91L27.75,33.91z M27.75,33.91"/>
        <path class="st0" d="M27.75,20.76c0.2,0,0.34,0.18,0.34,0.35v12.79h-0.68V21.11C27.41,20.94,27.55,20.76,27.75,20.76 M27.75,19.01
			c-0.95,0-1.7,0.96-1.7,2.1v14.55h3.4V21.11C29.45,19.98,28.7,19.01,27.75,19.01L27.75,19.01z M34.21,39.17
			c1.9,0,3.4,1.93,3.4,4.38v5.26c0,2.45-1.49,4.38-3.4,4.38H5.67c-1.9,0-3.4-1.93-3.4-4.38v-5.26c0-2.45,1.49-4.38,3.4-4.38H34.21
			 M34.21,37.42H5.67c-2.65,0-4.76,2.72-4.76,6.13v5.26c0,3.42,2.11,6.13,4.76,6.13h28.54c2.65,0,4.76-2.72,4.76-6.13v-5.26
			C38.96,40.13,36.86,37.42,34.21,37.42L34.21,37.42z M34.21,37.42"/>
	</g>
        <path class="st1" d="M9.75,44.43c0.75,0,1.36,0.79,1.36,1.75s-0.61,1.75-1.36,1.75c-0.75,0-1.36-0.79-1.36-1.75S9,44.43,9.75,44.43
		 M9.75,42.67c-1.49,0-2.72,1.58-2.72,3.51s1.22,3.51,2.72,3.51c1.49,0,2.72-1.58,2.72-3.51S11.24,42.67,9.75,42.67L9.75,42.67z
		 M31.15,46.18H17.56c-0.2,0-0.34,0.18-0.34,0.44c0,0.26,0.14,0.44,0.34,0.44h13.59c0.2,0,0.34-0.18,0.34-0.44
		C31.49,46.35,31.35,46.18,31.15,46.18L31.15,46.18z M18.38,11.47c-0.2,0-0.41-0.09-0.54-0.35c-0.2-0.35-0.14-0.96,0.14-1.23
		c2.65-2.54,6.12-3.86,9.78-3.86c3.67,0,7.13,1.4,9.78,3.86c0.27,0.26,0.34,0.88,0.14,1.23c-0.2,0.35-0.68,0.44-0.95,0.18
		c-2.38-2.28-5.57-3.51-8.97-3.51c-3.4,0-6.59,1.23-8.97,3.51C18.65,11.39,18.51,11.47,18.38,11.47L18.38,11.47z M18.38,11.47"/>
        <path class="st1" d="M21.57,15.59c-0.2,0-0.41-0.09-0.54-0.35c-0.2-0.35-0.14-0.96,0.14-1.23c1.77-1.67,4.08-2.63,6.59-2.63
		c2.45,0,4.82,0.96,6.59,2.63c0.27,0.26,0.34,0.88,0.14,1.23c-0.2,0.35-0.68,0.44-0.95,0.18c-1.56-1.49-3.6-2.28-5.78-2.28
		c-2.17,0-4.28,0.79-5.78,2.28C21.84,15.51,21.71,15.59,21.57,15.59L21.57,15.59z M21.57,15.59"/>
</g>
</svg>
