<?xml version="1.0" encoding="utf-8"?>
<svg version="1.1"  xmlns="http://www.w3.org/2000/svg" xmlns:xlink="http://www.w3.org/1999/xlink" x="0px" y="0px"
     viewBox="0 0 40 60" style="enable-background:new 0 0 40 60;" xml:space="preserve">
<style type="text/css">
	.st0{clip-path:url(#SVGID_2_);fill:#FFFFFF;}
</style>
    <g>
	<g>
		<defs>
			<rect id="SVGID_1_" x="1" y="11" width="38" height="39"/>
		</defs>
        <clipPath id="SVGID_2_">
			<use xlink:href="#SVGID_1_"  style="overflow:visible;"/>
		</clipPath>
        <path class="st0" d="M0.79,25.66c0,2.06,1.07,3.97,2.81,5c1.74,1.03,3.88,1.03,5.62,0c1.74-1.03,2.81-2.94,2.81-5
			c0-3.19-2.52-5.77-5.62-5.77C3.31,19.89,0.79,22.47,0.79,25.66L0.79,25.66z M0.79,25.66"/>
        <path class="st0" d="M27.21,36.14c0,3.19,2.52,5.77,5.62,5.77c3.11,0,5.62-2.58,5.62-5.77c0-3.19-2.52-5.77-5.62-5.77
			C29.73,30.37,27.21,32.95,27.21,36.14L27.21,36.14z M27.21,36.14"/>
        <path class="st0" d="M31.24,15.07l-0.33-0.42c-2.78-3.49-7.84-4-11.24-1.14L8.25,23.13c-2.17,1.83-3.16,4.63-2.86,7.31l2.5-2.01
			c0.26-1.25,0.92-2.43,1.96-3.3l11.42-9.61c2.44-2.06,6.07-1.69,8.08,0.82c2,2.5,1.64,6.24-0.79,8.28l-8.67,7.3l1.55,2.02l8.7-7.33
			C33.53,23.75,34.03,18.55,31.24,15.07L31.24,15.07z M31.24,15.07"/>
        <path class="st0" d="M8.2,46.74l0.33,0.42c2.79,3.49,7.84,4,11.24,1.14l11.42-9.62c2.17-1.83,3.16-4.63,2.86-7.31l-2.49,2.01
			c-0.26,1.25-0.92,2.43-1.96,3.3L18.17,46.3c-2.44,2.06-6.07,1.69-8.08-0.82c-2-2.5-1.64-6.24,0.79-8.29l8.67-7.3l-1.55-2.02
			l-8.7,7.34C5.9,38.06,5.41,43.26,8.2,46.74L8.2,46.74z M8.2,46.74"/>
	</g>
</g>
</svg>
